<svg width="70" height="60" viewBox="0 0 70 60" fill="none" xmlns="http://www.w3.org/2000/svg">
<path fill-rule="evenodd" clip-rule="evenodd" d="M49.9342 9.82044V28.8814H61.0853V9.82044C61.0853 7.19588 58.5722 5.04139 55.5097 5.04139C52.447 5.04139 49.9342 7.19544 49.9342 9.82044ZM22.5098 18.1398C21.7593 17.4965 21.7593 16.4531 22.5098 15.8099C23.2608 15.1659 24.478 15.1659 25.2293 15.8099L26.2827 16.713L29.6867 13.7958C27.3182 12.2254 23.9558 12.4126 21.8402 14.2256C19.5161 16.2179 19.5161 19.4479 21.8402 21.4404C24.164 23.4324 27.9328 23.4324 30.2567 21.4404C31.706 20.1985 32.3315 18.3799 31.83 16.6186L27.6425 20.2086C26.8912 20.8517 25.674 20.8517 24.9235 20.2086L22.5098 18.1398ZM32.4188 11.4538L34.8327 9.38448C35.5832 8.74121 36.8007 8.74121 37.5514 9.38448C38.3016 10.0282 38.3016 11.0715 37.5514 11.7148L34.8063 14.0674C36.7088 17.3112 35.9473 21.2236 32.9756 23.7703C29.1493 27.0502 22.9478 27.0502 19.1212 23.7703C15.2957 20.4912 15.2957 15.175 19.1212 11.8955C22.7393 8.79425 28.5331 8.60036 32.4188 11.4538V11.4538ZM14.0456 45.9104C12.9834 45.9104 12.1228 46.6483 12.1228 47.5585C12.1228 48.4685 12.9834 49.2064 14.0456 49.2064C15.1072 49.2064 15.9683 48.4685 15.9683 47.5585C15.9683 46.6483 15.1072 45.9104 14.0456 45.9104ZM21.736 49.2064C20.6735 49.2064 19.8134 48.4685 19.8134 47.5585C19.8134 46.6483 20.6735 45.9104 21.736 45.9104H40.3212C41.3829 45.9104 42.2438 46.6483 42.2438 47.5585C42.2438 48.4685 41.3829 49.2064 40.3212 49.2064H21.736ZM14.0456 39.3189C12.9834 39.3189 12.1228 40.0563 12.1228 40.9668C12.1228 41.8768 12.9834 42.6147 14.0456 42.6147C15.1072 42.6147 15.9683 41.8768 15.9683 40.9668C15.9683 40.0563 15.1072 39.3189 14.0456 39.3189ZM21.736 42.6147C20.6735 42.6147 19.8134 41.8768 19.8134 40.9668C19.8134 40.0563 20.6735 39.3189 21.736 39.3189H40.3212C41.3829 39.3189 42.2438 40.0563 42.2438 40.9668C42.2438 41.8768 41.3829 42.6147 40.3212 42.6147H21.736ZM49.9342 32.1774V56.3475C49.9342 57.2577 49.0735 57.9954 48.0116 57.9954H6.35515C5.29273 57.9954 4.43262 57.2577 4.43262 56.3475V9.6556C4.43262 5.29689 8.57526 1.74539 13.6612 1.74539H55.5097C60.695 1.74539 64.9306 5.37611 64.9306 9.82044V30.5293C64.9306 31.4395 64.0697 32.1774 63.0078 32.1774H49.9342ZM47.9259 5.04139C46.7728 6.38095 46.0891 8.03522 46.0891 9.82044V54.6996H8.27769V9.6556C8.27769 7.11643 10.6983 5.04139 13.6612 5.04139H47.9259ZM14.0456 32.7269C12.9834 32.7269 12.1228 33.4648 12.1228 34.3748C12.1228 35.285 12.9834 36.0229 14.0456 36.0229C15.1072 36.0229 15.9683 35.285 15.9683 34.3748C15.9683 33.4648 15.1072 32.7269 14.0456 32.7269ZM21.736 36.0229H40.3212C41.3829 36.0229 42.2438 35.285 42.2438 34.3748C42.2438 33.4648 41.3829 32.7269 40.3212 32.7269H21.736C20.6735 32.7269 19.8134 33.4648 19.8134 34.3748C19.8134 35.285 20.6735 36.0229 21.736 36.0229V36.0229Z" fill="#FDFCFC"/>
</svg>
