<svg width="70" height="60" viewBox="0 0 70 60" fill="none" xmlns="http://www.w3.org/2000/svg">
<path d="M9.43506 23.8475H20.0291C20.7841 23.8475 21.3963 23.3228 21.3963 22.6757C21.3963 22.0285 20.7841 21.5038 20.0291 21.5038H9.43506C8.6801 21.5038 8.06787 22.0285 8.06787 22.6757C8.06787 23.3228 8.67996 23.8475 9.43506 23.8475Z" fill="#FFFDFD"/>
<path d="M9.43506 31.9623H20.0291C20.7841 31.9623 21.3963 31.4375 21.3963 30.7904C21.3963 30.1433 20.7841 29.6186 20.0291 29.6186H9.43506C8.6801 29.6186 8.06787 30.1433 8.06787 30.7904C8.06787 31.4375 8.67996 31.9623 9.43506 31.9623Z" fill="#FFFDFD"/>
<path d="M22.5603 51.6046C22.2736 51.0152 21.4649 50.7259 20.7747 50.9707C20.0866 51.2148 19.7511 51.9121 20.0364 52.5012C20.3222 53.0912 21.1317 53.379 21.8206 53.1351C22.5083 52.8917 22.8463 52.1935 22.5603 51.6046Z" fill="#FFFDFD"/>
<path d="M69.6332 33.471L53.3713 18.5085L58.3503 14.2507C59.2151 13.5177 59.6914 12.5396 59.6914 11.4968C59.6914 10.4685 59.2268 9.5005 58.384 8.77148C56.6404 7.26211 53.7705 7.24265 51.9864 8.72847C51.982 8.73211 51.9777 8.73574 51.9734 8.73937L45.1469 14.5766H42.5962V10.0762C42.5962 9.42914 41.984 8.90437 41.229 8.90437H33.9894V7.94707C33.9894 7.29996 33.3771 6.77519 32.6222 6.77519C31.8672 6.77519 31.255 7.29996 31.255 7.94707V8.90437H26.2605V7.94707C26.2605 7.29996 25.6483 6.77519 24.8933 6.77519C24.1384 6.77519 23.5262 7.29996 23.5262 7.94707V8.90437H18.5315V7.94707C18.5315 7.29996 17.9193 6.77519 17.1644 6.77519C16.4094 6.77519 15.7972 7.29996 15.7972 7.94707V8.90437H10.8024V7.94707C10.8024 7.29996 10.1902 6.77519 9.43523 6.77519C8.68027 6.77519 8.06805 7.29996 8.06805 7.94707V8.90437H1.36719C0.612227 8.90437 0 9.42914 0 10.0762V52.0528C0 52.6999 0.612227 53.2247 1.36719 53.2247H15.3223C16.0773 53.2247 16.6895 52.6999 16.6895 52.0528C16.6895 51.4057 16.0773 50.8809 15.3223 50.8809H2.73438V11.2481H8.06805V12.3114C8.06805 12.9585 8.68027 13.4832 9.43523 13.4832C10.1902 13.4832 10.8024 12.9585 10.8024 12.3114V11.2481H15.797V12.3114C15.797 12.9585 16.4093 13.4832 17.1642 13.4832C17.9192 13.4832 18.5314 12.9585 18.5314 12.3114V11.2481H23.526V12.3114C23.526 12.9585 24.1382 13.4832 24.8932 13.4832C25.6482 13.4832 26.2604 12.9585 26.2604 12.3114V11.2481H31.2549V12.3114C31.2549 12.9585 31.8671 13.4832 32.6221 13.4832C33.377 13.4832 33.9892 12.9585 33.9892 12.3114V11.2481H39.8617V14.5832C37.406 14.6687 35.0607 15.5576 33.3195 17.0418L23.2582 25.6656C22.6502 26.1867 22.7631 27.0793 23.4824 27.4784C24.6153 28.1064 25.8851 28.5124 27.212 28.6761C27.6542 28.7307 28.1028 28.7584 28.5549 28.7584C28.5571 28.7584 28.5592 28.7583 28.5612 28.7583L26.9918 30.1003C26.8779 30.1978 26.7876 30.3112 26.7207 30.4337L22.3349 36.0803C21.9397 36.5891 21.7783 37.17 21.8374 37.7332H9.43523C8.68027 37.7332 8.06805 38.258 8.06805 38.9051C8.06805 39.5522 8.68027 40.077 9.43523 40.077H24.8329C25.4246 40.077 26.0214 39.9078 26.5087 39.624L33.1749 35.7415C33.2538 35.6972 33.33 35.6449 33.3967 35.588L36.4886 32.944L39.8619 35.829V50.8809H27.351C26.596 50.8809 25.9838 51.4057 25.9838 52.0528C25.9838 52.6999 26.596 53.2247 27.351 53.2247H41.229C41.984 53.2247 42.5962 52.6999 42.5962 52.0528V38.1166C44.3246 39.347 46.4796 40.0177 48.7551 40.0177H54.2098C55.3442 40.0177 56.4441 40.4209 57.2205 41.1177L67.6371 50.606C68.4656 51.3608 69.9999 50.8407 69.9999 49.8029V34.2697C70 33.9734 69.8689 33.6879 69.6332 33.471ZM35.2532 18.6991C36.5775 17.5641 38.3909 16.9201 40.2637 16.9201H42.4056L33.8874 24.2039C33.0992 24.8525 32.3531 25.4882 31.3437 25.8892C29.8543 26.4809 28.1239 26.5753 26.558 26.1519L35.2532 18.6991ZM53.897 10.4051C54.6103 9.81609 55.7495 9.8223 56.4413 10.421C56.7738 10.7086 56.9569 11.0906 56.9569 11.4968C56.9569 11.9088 56.7689 12.295 56.4234 12.5879L42.1349 24.8066L41.4464 24.2163C40.8017 23.6637 39.988 23.2577 39.1094 23.0495L53.897 10.4051ZM24.9718 37.6855C24.8548 37.7537 24.7457 37.7459 24.6442 37.6596C24.493 37.5312 24.5697 37.4324 24.611 37.3792L28.1838 32.7794L30.2943 34.5857L24.9718 37.6855ZM32.4323 33.1021L29.8957 30.9279L32.5008 28.6999C32.7467 29.4629 33.234 30.1595 33.8859 30.7181L34.5529 31.2887L32.4323 33.1021ZM67.2656 46.8477L59.205 39.5054C57.9082 38.3415 56.0875 37.674 54.2098 37.674H48.7551C46.9082 37.674 45.1715 37.0589 43.8651 35.9421L35.8144 29.0566C34.6522 28.3096 34.9118 26.6534 35.8148 25.8673C36.8294 25.0209 38.5205 25.0227 39.5128 25.8735L46.0537 31.48C46.5799 31.9308 47.4608 31.9309 47.9873 31.48C48.5212 31.0223 48.5212 30.2803 47.9873 29.8226L44.0686 26.4636L51.4344 20.1648L67.2656 34.7311V46.8477Z" fill="#FFFDFD"/>
</svg>
