<svg width="70" height="60" viewBox="0 0 70 60" fill="none" xmlns="http://www.w3.org/2000/svg">
<path d="M62.7181 49.4787L59.5921 15.7151C59.3972 13.5398 57.251 11.8358 54.7059 11.8358H48.5312V11.5979C48.5312 5.20277 42.4613 0 35.0003 0C27.5393 0 21.4694 5.20277 21.4694 11.5979V11.8358H15.2949C12.7496 11.8358 10.6033 13.5397 10.4091 15.7105L7.2821 49.4832C7.04011 52.1873 8.13454 54.8795 10.2846 56.8691C12.4346 58.8587 15.4825 60 18.6466 60H51.3539C54.5179 60 57.5659 58.8588 59.7161 56.8691C61.8661 54.8794 62.9604 52.1873 62.7181 49.4787ZM25.5696 11.5979C25.5696 7.1407 29.8004 3.51445 35.0003 3.51445C40.2003 3.51445 44.431 7.14082 44.431 11.5979V11.8358H25.5696V11.5979ZM56.7078 54.4811C55.3108 55.7736 53.4096 56.4855 51.3539 56.4855H18.6467C16.591 56.4855 14.6898 55.7736 13.2928 54.4811C11.8959 53.1884 11.2132 51.5088 11.3701 49.7566L14.4969 15.9838C14.5286 15.6285 14.8791 15.3503 15.2949 15.3503H21.4694V19.6786C21.4694 20.649 22.3873 21.4358 23.5195 21.4358C24.6517 21.4358 25.5696 20.649 25.5696 19.6786V15.3503H44.431V19.6786C44.431 20.649 45.349 21.4358 46.4811 21.4358C47.6133 21.4358 48.5312 20.649 48.5312 19.6786V15.3503H54.7059C55.1215 15.3503 55.472 15.6286 55.5043 15.9885L58.6304 49.752C58.7876 51.5088 58.1047 53.1882 56.7078 54.4811Z" fill="#FFF9F9"/>
<path d="M44.2364 29.799C43.436 29.1128 42.1379 29.1128 41.3374 29.799L32.1833 37.6454L28.6633 34.6283C27.8628 33.9421 26.5647 33.9421 25.764 34.6283C24.9634 35.3146 24.9634 36.4271 25.764 37.1134L30.7336 41.373C31.1339 41.7162 31.6587 41.8878 32.1831 41.8878C32.7076 41.8878 33.2324 41.7163 33.6326 41.373L44.2362 32.2842C45.037 31.5978 45.037 30.4853 44.2364 29.799Z" fill="#FFF9F9"/>
</svg>
