<svg width="70" height="60" viewBox="0 0 70 60" fill="none" xmlns="http://www.w3.org/2000/svg">
<g clip-path="url(#clip0)">
<path d="M21.5555 12.0251C20.9503 12.0251 20.4595 12.4457 20.4595 12.9646C20.4595 14.1042 19.3777 15.0314 18.0481 15.0314C16.7186 15.0314 15.6368 14.1042 15.6368 12.9646C15.6368 11.8249 16.7186 10.8977 18.0481 10.8977C18.6534 10.8977 19.1442 10.4772 19.1442 9.95824C19.1442 9.43934 18.6535 9.01875 18.0481 9.01875C15.5098 9.01875 13.4448 10.7889 13.4448 12.9645C13.4448 15.14 15.51 16.9102 18.0481 16.9102C20.5863 16.9102 22.6515 15.14 22.6515 12.9645C22.6516 12.4457 22.1608 12.0251 21.5555 12.0251Z" fill="#FDFAFA"/>
<path d="M21.5555 23.048C20.9503 23.048 20.4595 23.4686 20.4595 23.9875C20.4595 25.1271 19.3777 26.0543 18.0481 26.0543C16.7186 26.0543 15.6368 25.1271 15.6368 23.9875C15.6368 22.8478 16.7186 21.9206 18.0481 21.9206C18.6534 21.9206 19.1442 21.5 19.1442 20.9811C19.1442 20.4622 18.6535 20.0416 18.0481 20.0416C15.5098 20.0416 13.4448 21.8118 13.4448 23.9873C13.4448 26.1629 15.51 27.933 18.0481 27.933C20.5863 27.933 22.6515 26.1629 22.6515 23.9873C22.6516 23.4687 22.1608 23.048 21.5555 23.048Z" fill="#FDFAFA"/>
<path d="M34.4155 25.0522H26.2318C25.6266 25.0522 25.1357 25.4728 25.1357 25.9917C25.1357 26.5106 25.6264 26.9312 26.2318 26.9312H34.4155C35.0208 26.9312 35.5116 26.5106 35.5116 25.9917C35.5116 25.4728 35.0209 25.0522 34.4155 25.0522Z" fill="#FDFAFA"/>
<path d="M34.4155 21.0438H26.2318C25.6266 21.0438 25.1357 21.4644 25.1357 21.9833C25.1357 22.5022 25.6264 22.9228 26.2318 22.9228H34.4155C35.0208 22.9228 35.5116 22.5022 35.5116 21.9833C35.5116 21.4644 35.0209 21.0438 34.4155 21.0438Z" fill="#FDFAFA"/>
<path d="M32.0774 36.0751H26.2318C25.6266 36.0751 25.1357 36.4957 25.1357 37.0146C25.1357 37.5335 25.6264 37.9541 26.2318 37.9541H32.0774C32.6826 37.9541 33.1734 37.5335 33.1734 37.0146C33.1734 36.4957 32.6826 36.0751 32.0774 36.0751Z" fill="#FDFAFA"/>
<path d="M34.4155 32.0668H26.2318C25.6266 32.0668 25.1357 32.4874 25.1357 33.0063C25.1357 33.5252 25.6264 33.9458 26.2318 33.9458H34.4155C35.0208 33.9458 35.5116 33.5252 35.5116 33.0063C35.5116 32.4874 35.0209 32.0668 34.4155 32.0668Z" fill="#FDFAFA"/>
<path d="M44.9375 14.0292H26.2318C25.6266 14.0292 25.1357 14.4498 25.1357 14.9687C25.1357 15.4876 25.6264 15.9082 26.2318 15.9082H44.9374C45.5427 15.9082 46.0335 15.4876 46.0335 14.9687C46.0335 14.4498 45.5428 14.0292 44.9375 14.0292Z" fill="#FDFAFA"/>
<path d="M40.2611 10.0208H26.2318C25.6266 10.0208 25.1357 10.4414 25.1357 10.9603C25.1357 11.4792 25.6264 11.8998 26.2318 11.8998H40.2611C40.8663 11.8998 41.3571 11.4792 41.3571 10.9603C41.3571 10.4414 40.8665 10.0208 40.2611 10.0208Z" fill="#FDFAFA"/>
<path d="M21.5555 34.071C20.9503 34.071 20.4595 34.4916 20.4595 35.0105C20.4595 36.1501 19.3777 37.0773 18.0481 37.0773C16.7186 37.0773 15.6368 36.1501 15.6368 35.0105C15.6368 33.8708 16.7186 32.9436 18.0481 32.9436C18.6534 32.9436 19.1442 32.523 19.1442 32.0041C19.1442 31.4852 18.6535 31.0647 18.0481 31.0647C15.5098 31.0647 13.4448 32.8348 13.4448 35.0104C13.4448 37.1859 15.51 38.9561 18.0481 38.9561C20.5863 38.9561 22.6515 37.1859 22.6515 35.0104C22.6516 34.4916 22.1608 34.071 21.5555 34.071Z" fill="#FDFAFA"/>
<path d="M49.6139 0H9.86441C7.97086 0 6.43018 1.32047 6.43018 2.94363V45.0313C6.43018 46.6544 7.97072 47.9749 9.86441 47.9749H29.7392C30.3445 47.9749 30.8353 47.5543 30.8353 47.0354C30.8353 46.5166 30.3446 46.0959 29.7392 46.0959H9.86441C9.17945 46.0959 8.62219 45.6183 8.62219 45.0312V2.94363C8.62219 2.35652 9.17945 1.87887 9.86441 1.87887H49.6139C50.2988 1.87887 50.8561 2.35652 50.8561 2.94363V34.0085C50.8561 34.5273 51.3468 34.948 51.9522 34.948C52.5574 34.948 53.0483 34.5274 53.0483 34.0085V2.94363C53.0481 1.32047 51.5076 0 49.6139 0Z" fill="#FDFAFA"/>
<path d="M59.9616 38.097C58.9429 38.0099 57.9248 38.2574 57.119 38.7818C56.4771 37.8586 55.3825 37.2036 54.1161 37.0949C53.0971 37.0079 52.0791 37.2554 51.2734 37.7797C50.6315 36.8565 49.537 36.2016 48.2705 36.0928C47.4926 36.0263 46.7158 36.1547 46.0331 36.4525V24.4886C46.0331 23.5172 45.5511 22.586 44.7101 21.9339C43.87 21.2823 42.7378 20.9643 41.6037 21.0615C39.5804 21.2352 37.9956 22.8033 37.9956 24.6315V36.6257L34.7737 39.3873C33.0615 40.8549 32.3704 42.937 32.9251 44.9574L35.3711 53.868C36.3622 57.4786 40.0767 60.0003 44.4041 60.0003H54.2898C59.4067 60.0003 63.5696 56.4321 63.5696 52.0462V41.6672C63.5698 39.8387 61.9849 38.2706 59.9616 38.097ZM61.3776 52.0459C61.3776 55.3957 58.1981 58.121 54.29 58.121H44.4043C41.0991 58.121 38.2619 56.1951 37.5049 53.4373L35.0589 44.5267C34.6793 43.1445 35.1522 41.7197 36.3236 40.7156L37.9956 39.2826V42.5261C37.9956 43.0449 38.4863 43.4656 39.0916 43.4656C39.697 43.4656 40.1877 43.045 40.1877 42.5261V24.6314C40.1877 23.7566 40.9056 23.0097 41.8223 22.9311C42.3488 22.8858 42.8524 23.0266 43.2396 23.3271C43.622 23.6237 43.8413 24.0471 43.8413 24.4887V41.0231C43.8413 41.5419 44.3319 41.9626 44.9373 41.9626C45.5427 41.9626 46.0334 41.542 46.0334 41.0231V39.52C46.0334 39.0784 46.2526 38.655 46.6351 38.3584C47.0226 38.0579 47.5258 37.917 48.0523 37.9624C48.9689 38.0411 49.6869 38.788 49.6869 39.6628V42.025C49.6869 42.5438 50.1776 42.9645 50.783 42.9645C51.3883 42.9645 51.8791 42.5439 51.8791 42.025V40.5218C51.8791 40.0802 52.0982 39.6568 52.4808 39.3602C52.8682 39.0598 53.3716 38.9189 53.898 38.9643C54.8146 39.0429 55.5326 39.7899 55.5326 40.6647V43.0269C55.5326 43.5457 56.0233 43.9664 56.6287 43.9664C57.2339 43.9664 57.7248 43.5458 57.7248 43.0269V41.5238C57.7248 41.0822 57.9439 40.6588 58.3265 40.3622C58.7139 40.0619 59.2169 39.9208 59.7437 39.9663C60.6603 40.0449 61.3783 40.7918 61.3783 41.6666V52.0459H61.3776Z" fill="#FDFAFA"/>
</g>
<defs>
<clipPath id="clip0">
<rect width="70" height="60" fill="white"/>
</clipPath>
</defs>
</svg>
